<svg xmlns="http://www.w3.org/2000/svg" viewBox="0 0 93.44 18.38"><defs><style>.cls-1{opacity:0.7;}.cls-2,.cls-3{fill:#fff;}.cls-2{fill-rule:evenodd;}</style></defs><title>Element 3</title><g id="Ebene_2" data-name="Ebene 2"><g id="Ebene_1-2" data-name="Ebene 1"><g class="cls-1"><path class="cls-2" d="M78,1V18.11h3.8V12.46l3.4,5.65h4.07l-3.75-6.24,3.74-5.93,0,0h-3.9c-.29,0-3,4.8-3.52,5.37V.32Z"/><path class="cls-2" d="M1.9,3.74V5.91H0V9.05H1.9v9.06H5.64V9.05H8.13l.33-3.14H5.64V4.12a.88.88,0,0,1,.92-1h1.9V0H5.91C3.36,0,1.9,1.2,1.9,3.74Z"/><path class="cls-2" d="M19.68,10.68V13.5c0,3.22,2.35,4.77,5.64,4.77h.49a14.31,14.31,0,0,0,1.72-.17c.24,0,1.53-.19,1.53-.43V14.74l-2.82.39h-1.3c-1.13,0-1.52-.7-1.52-1.85V10.57c0-1.37.7-1.68,2.06-1.68h.11V8.82l3.46.45v-3a16.8,16.8,0,0,0-3.85-.49C21.9,5.75,19.68,7.39,19.68,10.68Z"/><path class="cls-2" d="M48.74,5.75a11.3,11.3,0,0,0-3,.43V.31L42,.93V17.67c0,.29,2,.4,2.38.44a22,22,0,0,0,2.66.16h.38c3.41,0,5.47-1.31,5.47-4.77V9.38C52.91,6.79,51.33,5.75,48.74,5.75Zm.43,7.53c0,1.2-.51,1.9-1.68,1.9H46.25l-.49-.06V9.38a5.16,5.16,0,0,1,1.89-.49c.93,0,1.52.44,1.52,1.36Z"/><path class="cls-2" d="M59.47,5.75C55.92,5.75,54,7.33,54,10.9v2.22c0,3.28,1.75,5.1,5,5.1H60.4a5,5,0,0,0,3.48-1.56c.83-.84,1.07-2.36,1.07-4v-2C65,7.3,62.87,5.75,59.47,5.75Zm1.68,8a1.37,1.37,0,0,1-1.46,1.41h-.6c-1,0-1.35-.86-1.35-1.9V10.46a1.49,1.49,0,0,1,1.68-1.57h.11a1.44,1.44,0,0,1,1.62,1.36Z"/><path class="cls-2" d="M75.67,7.12a5.65,5.65,0,0,0-3.78-1.37h-.44C68.07,5.75,66,7.3,66,10.68v2.6c0,3.43,2.1,5,5.53,5S76.93,16.6,76.93,13V11A5.11,5.11,0,0,0,75.67,7.12Zm-2.53,6.76a1.39,1.39,0,0,1-1.47,1.25h-.38a1.38,1.38,0,0,1-1.52-1.25V10.14c0-.83.81-1.25,1.68-1.25s1.69.42,1.69,1.36Z"/><path class="cls-2" d="M40.77,13.12V10.46c0-3.1-1.94-4.71-5-4.71a6.22,6.22,0,0,0-4,1,4.27,4.27,0,0,0-1.6,3.44v3.2c0,3,2.14,4.88,5.1,4.88h1a14,14,0,0,0,2.19-.14c.36-.06.69-.05,1-.13a4,4,0,0,1,1-.16V14.75l-3.2.38h-1.9a1.44,1.44,0,0,1-1.47-1.52v-.49ZM33.88,10a1.35,1.35,0,0,1,1.36-1.46h.27C36.33,8.57,37,9,37,9.81v.76H33.88Z"/><path class="cls-2" d="M12.14,5.91H9.68L9.37,9.05h3.75c1.1,0,1.57.4,1.57,1.52v.65H12.25c-2.51,0-4.12.75-4.12,3.26V15a3.33,3.33,0,0,0,3.2,3.25A8.53,8.53,0,0,0,13.48,18c.65-.16,1.28-.57,1.69-.68l.12.81h3.14v-7.8C18.43,6.22,16.2,5.91,12.14,5.91ZM14.69,15c0,.32-1.38.65-1.84.65a.94.94,0,0,1-1-.86v-.22c0-.67.52-.81,1.2-.81h1.62Z"/><path class="cls-3" d="M91.94,15.38a1.55,1.55,0,0,1,.74.2,1.41,1.41,0,0,1,.56.55,1.51,1.51,0,0,1,0,1.5,1.39,1.39,0,0,1-.55.55,1.51,1.51,0,0,1-1.5,0,1.39,1.39,0,0,1-.55-.55,1.51,1.51,0,0,1,0-1.5,1.41,1.41,0,0,1,.56-.55A1.55,1.55,0,0,1,91.94,15.38Zm0,.25a1.32,1.32,0,0,0-.61.16,1.18,1.18,0,0,0-.47.47,1.29,1.29,0,0,0-.17.62,1.22,1.22,0,0,0,.16.62,1.27,1.27,0,0,0,1.71.47A1.1,1.1,0,0,0,93,17.5a1.23,1.23,0,0,0,.17-.62,1.29,1.29,0,0,0-.17-.62,1.18,1.18,0,0,0-.47-.47A1.35,1.35,0,0,0,91.94,15.63Zm-.66,2.08V16.1h.56a1.39,1.39,0,0,1,.41,0,.39.39,0,0,1,.2.16.41.41,0,0,1,.08.24.43.43,0,0,1-.13.3.49.49,0,0,1-.33.15.3.3,0,0,1,.13.09,1.38,1.38,0,0,1,.24.32l.2.31h-.32l-.14-.25a1.45,1.45,0,0,0-.28-.38.28.28,0,0,0-.2,0h-.16v.68Zm.26-.91h.32a.58.58,0,0,0,.31-.06.25.25,0,0,0,.08-.18.2.2,0,0,0,0-.13.24.24,0,0,0-.11-.09l-.26,0h-.3Z"/></g></g></g></svg>