<svg xmlns="http://www.w3.org/2000/svg" viewBox="0 0 26.55 26.52"><defs><style>.cls-1{opacity:0.7;}.cls-2{fill:#fff;}</style></defs><title>Element 1</title><g id="Ebene_2" data-name="Ebene 2"><g id="Ebene_1-2" data-name="Ebene 1"><g class="cls-1"><path class="cls-2" d="M20.32,0c.45.05.91.07,1.35.14a5.62,5.62,0,0,1,4.77,5,18.69,18.69,0,0,1,.1,2.12q0,6,0,12.08a10,10,0,0,1-.37,3.31,5.64,5.64,0,0,1-4.9,3.8c-1.51.09-3,.09-4.56.1q-4.36,0-8.72,0a14.82,14.82,0,0,1-3.58-.25,5.63,5.63,0,0,1-4.3-5C0,20.56,0,19.84,0,19.13c0-4,0-7.91,0-11.87A14.11,14.11,0,0,1,.26,4.43,5.53,5.53,0,0,1,5.13.1L6,0Zm2.54,8.2a4.77,4.77,0,0,0-3.73-4.38,12.14,12.14,0,0,0-3.29-.32c-1.72,0-3.43,0-5.15,0a24,24,0,0,0-2.41.14,5.05,5.05,0,0,0-4.6,4.57c-.15,1.35-.15,2.72-.18,4.08,0,1.15,0,2.31,0,3.46,0,.8,0,1.61.13,2.41a5,5,0,0,0,4.18,4.61,20.27,20.27,0,0,0,3.22.24c1.83,0,3.67,0,5.51,0a14,14,0,0,0,1.83-.14,5,5,0,0,0,4.13-3.18,9.37,9.37,0,0,0,.5-3.52c0-1,0-1.94,0-2.9C23,13.25,23,9.77,22.86,8.2Z"/><path class="cls-2" d="M13.29,21.26c-1.16,0-2.31,0-3.47,0a6,6,0,0,1-2.52-.44A3.37,3.37,0,0,1,5.37,18a19,19,0,0,1-.12-2.13c0-1.73,0-3.46,0-5.18A17.8,17.8,0,0,1,5.4,8.34a3.37,3.37,0,0,1,3.22-3c.8-.09,1.62-.11,2.44-.12,1.37,0,2.75,0,4.13,0a24.19,24.19,0,0,1,3,.16A3.35,3.35,0,0,1,21.2,8.75c.09,2.37.09,4.75.1,7.13a14,14,0,0,1-.17,2.33,3.53,3.53,0,0,1-3.32,3C16.56,21.26,13.29,21.26,13.29,21.26Zm0-3a5,5,0,1,0-5-5A5,5,0,0,0,13.27,18.25ZM18.5,6.88A1.15,1.15,0,0,0,17.34,8,1.16,1.16,0,1,0,18.5,6.88Z"/><path class="cls-2" d="M13.27,10A3.28,3.28,0,1,1,10,13.24,3.29,3.29,0,0,1,13.27,10Z"/></g></g></g></svg>