<svg xmlns="http://www.w3.org/2000/svg" xmlns:xlink="http://www.w3.org/1999/xlink" viewBox="0 0 42.88 21.81"><defs><style>.cls-1{fill:url(#linear-gradient);}.cls-2{opacity:0.7;}.cls-3{fill:#fff;}.cls-4{mask:url(#mask);}</style><linearGradient id="linear-gradient" x1="-112.49" y1="287.3" x2="-121" y2="272.56" gradientTransform="matrix(1, 0, 0, -1, 148.73, 285.84)" gradientUnits="userSpaceOnUse"><stop offset="0.01" stop-color="#fff"/><stop offset="0.01" stop-color="#f6f6f6"/><stop offset="0.05" stop-color="#c9c9c9"/><stop offset="0.1" stop-color="#9d9d9d"/><stop offset="0.15" stop-color="#777778"/><stop offset="0.2" stop-color="#575857"/><stop offset="0.26" stop-color="#3b3c3c"/><stop offset="0.32" stop-color="#252626"/><stop offset="0.4" stop-color="#141415"/><stop offset="0.49" stop-color="#0a0a0a"/><stop offset="0.63" stop-color="#040405"/><stop offset="0.99" stop-color="#030304"/></linearGradient><mask id="mask" x="17.85" y="0.48" width="24.54" height="16.21" maskUnits="userSpaceOnUse"><g id="SVGID"><path class="cls-1" d="M42.23,3.85v0A3.19,3.19,0,0,0,39,.65h0C36.19.53,33.2.48,30.13.48s-6.06.05-8.88.17h0a3.23,3.23,0,0,0-1.36.3L42,14.55a3.16,3.16,0,0,0,.24-1.19v0c.11-1.52.17-3.11.17-4.74S42.34,5.37,42.23,3.85ZM39,16.52h0a3.23,3.23,0,0,0,1.43-.33l-6.85.48C35.45,16.64,37.26,16.59,39,16.52Z"/></g></mask></defs><title>Element 2</title><g id="Ebene_2" data-name="Ebene 2"><g id="Ebene_1-2" data-name="Ebene 1"><g class="cls-2"><polygon class="cls-3" points="0 2.8 1.75 2.8 2.89 7.31 3 7.31 4.07 2.8 5.84 2.8 3.81 9.4 3.81 14.08 2.07 14.08 2.07 9.61 0 2.8"/><path class="cls-3" d="M5.77,7.66a2,2,0,0,1,.62-1.54,2.41,2.41,0,0,1,1.68-.57,2.13,2.13,0,0,1,1.57.6,2.1,2.1,0,0,1,.62,1.56V12a2.26,2.26,0,0,1-.6,1.67A2.24,2.24,0,0,1,8,14.29a2.13,2.13,0,0,1-1.62-.63A2.3,2.3,0,0,1,5.77,12Zm1.59,4.47a.76.76,0,0,0,.16.53.59.59,0,0,0,.48.19.7.7,0,0,0,.5-.19.76.76,0,0,0,.18-.53V7.6a.55.55,0,0,0-.19-.44A.71.71,0,0,0,8,7a.68.68,0,0,0-.47.17.6.6,0,0,0-.17.44Z"/><path class="cls-3" d="M16,5.76v8.32H14.44v-.92a3.35,3.35,0,0,1-.89.78,1.88,1.88,0,0,1-.9.26.93.93,0,0,1-.81-.37,1.91,1.91,0,0,1-.27-1.12v-7h1.55v6.38a.75.75,0,0,0,.09.42.37.37,0,0,0,.32.14.82.82,0,0,0,.43-.18,1.84,1.84,0,0,0,.48-.45V5.76Z"/><path class="cls-3" d="M38.5,7a.58.58,0,0,0-.53.23,1.31,1.31,0,0,0-.16.75v.72h1.37V8A1.39,1.39,0,0,0,39,7.22.58.58,0,0,0,38.5,7Zm4.21-3.18A3.66,3.66,0,0,0,39,.17C36.12.05,33.15,0,30.13,0s-6,.05-8.9.17a3.66,3.66,0,0,0-3.69,3.64c-.12,1.59-.17,3.18-.17,4.78s.05,3.18.17,4.77A3.66,3.66,0,0,0,21.23,17q4.35.18,8.9.17c3,0,6-.05,8.89-.17a3.66,3.66,0,0,0,3.69-3.64c.12-1.59.17-3.18.17-4.77S42.83,5.4,42.71,3.81ZM22.9,13.94v.12H21.15V4.42h-1.8V2.66H24.7V4.42H22.9Zm6.19-8.2v8.32H27.55v-.91a3.86,3.86,0,0,1-.89.77,1.79,1.79,0,0,1-.9.27.94.94,0,0,1-.81-.38,1.87,1.87,0,0,1-.27-1.11V5.62h1.54V12a.78.78,0,0,0,.1.43.37.37,0,0,0,.32.13.92.92,0,0,0,.43-.17,2.52,2.52,0,0,0,.48-.45V5.62h1.54Zm6,2v4.62a2.2,2.2,0,0,1-.36,1.36,1.28,1.28,0,0,1-1,.47,1.73,1.73,0,0,1-.81-.18,1.94,1.94,0,0,1-.66-.57v.64H30.6V2.66h1.57V6.3a2.21,2.21,0,0,1,.66-.58,1.34,1.34,0,0,1,.71-.2,1.3,1.3,0,0,1,1.12.53,2.59,2.59,0,0,1,.39,1.55ZM40.77,8V10.1h-3v1.45a1.94,1.94,0,0,0,.15.91.57.57,0,0,0,.53.25A.61.61,0,0,0,39,12.5a1.8,1.8,0,0,0,.16-.95V11h1.59v.75a2.77,2.77,0,0,1-.58,1.92,2.23,2.23,0,0,1-1.74.65,2,2,0,0,1-1.63-.69,2.74,2.74,0,0,1-.6-1.88V7.86a2.49,2.49,0,0,1,.65-1.77,2.27,2.27,0,0,1,1.7-.68A2.08,2.08,0,0,1,40.2,6a2.63,2.63,0,0,1,.57,1.82Zm-8-1a.8.8,0,0,0-.33.08,1.19,1.19,0,0,0-.31.26v5.06a1.15,1.15,0,0,0,.36.29.82.82,0,0,0,.38.09.48.48,0,0,0,.41-.17,1,1,0,0,0,.14-.58V7.82a1,1,0,0,0-.17-.64A.55.55,0,0,0,32.81,7Z"/><path class="cls-3" d="M2.89,18.48a4.2,4.2,0,0,1,.79-.07,1.36,1.36,0,0,1,.91.24.72.72,0,0,1,.28.59A.8.8,0,0,1,4.3,20h0a.84.84,0,0,1,.69.83.85.85,0,0,1-.29.66,1.59,1.59,0,0,1-1.14.31,5.06,5.06,0,0,1-.67,0Zm.43,1.36h.39c.45,0,.72-.24.72-.56s-.29-.54-.73-.54a1.51,1.51,0,0,0-.38,0Zm0,1.59.36,0c.45,0,.86-.16.86-.65s-.39-.64-.86-.64H3.32Z"/><path class="cls-3" d="M5.56,20.11c0-.28,0-.52,0-.74h.38l0,.47H6a.74.74,0,0,1,.67-.53l.12,0v.4H6.59a.62.62,0,0,0-.59.56,1.27,1.27,0,0,0,0,.2v1.27H5.56Z"/><path class="cls-3" d="M8.11,21.81A1.14,1.14,0,0,1,7,20.58a1.17,1.17,0,0,1,1.19-1.27,1.13,1.13,0,0,1,1.14,1.23,1.17,1.17,0,0,1-1.18,1.27Zm0-.33c.42,0,.73-.39.73-.93s-.21-.91-.72-.91-.73.47-.73.93.3.91.72.91Z"/><path class="cls-3" d="M11.52,21.18a3.25,3.25,0,0,0,0,.57h-.39l0-.3h0a.87.87,0,0,1-.73.36.67.67,0,0,1-.72-.69c0-.57.51-.89,1.43-.88v0a.49.49,0,0,0-.54-.55,1.19,1.19,0,0,0-.63.17l-.1-.29a1.59,1.59,0,0,1,.79-.21c.73,0,.91.5.91,1Zm-.42-.64c-.47,0-1,.07-1,.53a.38.38,0,0,0,.4.42.61.61,0,0,0,.59-.4.59.59,0,0,0,0-.14Z"/><path class="cls-3" d="M14.28,18.26v2.88a5.72,5.72,0,0,0,0,.61h-.39l0-.41h0a.87.87,0,0,1-.81.47,1.09,1.09,0,0,1-1-1.21,1.16,1.16,0,0,1,1.07-1.29.8.8,0,0,1,.72.36h0V18.26Zm-.44,2.08a.62.62,0,0,0,0-.19.64.64,0,0,0-.62-.5c-.45,0-.72.4-.72.92s.24.89.71.89a.65.65,0,0,0,.63-.52.58.58,0,0,0,0-.19Z"/><path class="cls-3" d="M16.7,21.67a1.63,1.63,0,0,1-.69.14,1.14,1.14,0,0,1-1.19-1.22,1.22,1.22,0,0,1,1.28-1.28,1.46,1.46,0,0,1,.61.13l-.1.33a1.17,1.17,0,0,0-.51-.11.83.83,0,0,0-.84.91.82.82,0,0,0,.83.89,1.28,1.28,0,0,0,.53-.11Z"/><path class="cls-3" d="M18.89,21.18a4.79,4.79,0,0,0,0,.57h-.39l0-.3h0a.88.88,0,0,1-.73.36.68.68,0,0,1-.73-.69c0-.57.51-.89,1.44-.88v0a.49.49,0,0,0-.55-.55,1.15,1.15,0,0,0-.62.17l-.1-.29a1.59,1.59,0,0,1,.79-.21c.73,0,.91.5.91,1Zm-.42-.64c-.48,0-1,.07-1,.53a.39.39,0,0,0,.41.42.62.62,0,0,0,.59-.4.59.59,0,0,0,0-.14Z"/><path class="cls-3" d="M19.52,21.32a1.37,1.37,0,0,0,.58.16c.31,0,.46-.15.46-.35s-.12-.32-.44-.44-.63-.39-.63-.67a.74.74,0,0,1,.82-.71,1.15,1.15,0,0,1,.58.15l-.1.31a1.07,1.07,0,0,0-.49-.13c-.26,0-.4.14-.4.32s.14.29.45.41.63.36.63.72-.33.72-.89.72a1.35,1.35,0,0,1-.67-.17Z"/><path class="cls-3" d="M22.06,18.8v.57h.62v.33h-.62V21c0,.29.08.46.32.46a.77.77,0,0,0,.25,0l0,.33a1.11,1.11,0,0,1-.38.06.63.63,0,0,1-.47-.18,1,1,0,0,1-.17-.63V19.7h-.37v-.33h.37v-.44Z"/><path class="cls-3" d="M24.74,21.75v-1.4l-1.06-1.92h.5l.46.92c.13.25.23.45.33.68h0c.09-.21.21-.43.34-.68l.48-.92h.48l-1.11,1.91v1.41Z"/><path class="cls-3" d="M27.27,21.81a1.14,1.14,0,0,1-1.15-1.23,1.17,1.17,0,0,1,1.18-1.27,1.13,1.13,0,0,1,1.15,1.23,1.17,1.17,0,0,1-1.18,1.27Zm0-.33c.41,0,.72-.39.72-.93s-.2-.91-.71-.91-.73.47-.73.93.3.91.72.91Z"/><path class="cls-3" d="M31,21.1a6.33,6.33,0,0,0,0,.65h-.39l0-.38h0a.9.9,0,0,1-.79.44c-.38,0-.82-.21-.82-1V19.37h.43v1.32c0,.45.14.76.53.76a.62.62,0,0,0,.57-.4.51.51,0,0,0,0-.22V19.37H31Z"/><path class="cls-3" d="M31.72,20.11c0-.28,0-.52,0-.74h.38l0,.47h0a.74.74,0,0,1,.67-.53l.12,0v.4h-.15a.62.62,0,0,0-.59.56,1.27,1.27,0,0,0,0,.2v1.27h-.43Z"/><path class="cls-3" d="M33.27,21.32a1.32,1.32,0,0,0,.57.16c.31,0,.46-.15.46-.35s-.12-.32-.44-.44-.63-.39-.63-.67a.74.74,0,0,1,.82-.71,1.15,1.15,0,0,1,.58.15l-.1.31a1.07,1.07,0,0,0-.49-.13c-.26,0-.39.14-.39.32s.13.29.44.41.63.36.63.72-.33.72-.89.72a1.35,1.35,0,0,1-.67-.17Z"/><path class="cls-3" d="M35.52,20.64a.76.76,0,0,0,.82.82,1.75,1.75,0,0,0,.66-.11l.08.3a2,2,0,0,1-.8.15,1.11,1.11,0,0,1-1.18-1.2,1.17,1.17,0,0,1,1.13-1.29,1,1,0,0,1,1,1.12,1.06,1.06,0,0,1,0,.21Zm1.27-.31a.61.61,0,0,0-.6-.71.71.71,0,0,0-.66.71Z"/><rect class="cls-3" x="37.75" y="18.26" width="0.43" height="3.5"/><path class="cls-3" d="M38.94,21.75V19.7h-.33v-.33h.33v-.11a1.16,1.16,0,0,1,.28-.84.86.86,0,0,1,.58-.22,1,1,0,0,1,.36.07l0,.34a.65.65,0,0,0-.28-.06c-.36,0-.46.33-.46.69v.13h.57v.33h-.57v2.05Z"/><path class="cls-3" d="M41.54,18.19v.14h-.36v1H41v-1h-.35v-.14Zm1.11,1.15,0-.7c0-.09,0-.2,0-.31h0c0,.11-.07.23-.1.33l-.24.66h-.13l-.24-.68c0-.09-.05-.2-.08-.31h0v.31l0,.7h-.16l.08-1.15h.23l.23.62c0,.09.05.18.08.29h0c0-.11.06-.21.09-.29l.22-.62h.23l.08,1.15Z"/><g class="cls-4"><path class="cls-3" d="M39,.65h0a3.19,3.19,0,0,1,3.21,3.16v0c.11,1.52.17,3.12.17,4.73s-.06,3.22-.17,4.74v0A3.19,3.19,0,0,1,39,16.52h0c-2.82.12-5.8.18-8.87.17s-6.06-.05-8.88-.17h0A3.19,3.19,0,0,1,18,13.36v0c-.11-1.52-.17-3.11-.17-4.73s.06-3.22.17-4.74v0A3.19,3.19,0,0,1,21.23.65h0c2.82-.12,5.8-.17,8.88-.17S36.19.53,39,.65Z"/></g></g></g></g></svg>